<?xml version="1.0" encoding="utf-8"?>
<!-- Generator: Adobe Illustrator 19.0.0, SVG Export Plug-In . SVG Version: 6.00 Build 0)  -->
<svg version="1.1" id="Layer_1" xmlns="http://www.w3.org/2000/svg" xmlns:xlink="http://www.w3.org/1999/xlink" x="0px" y="0px"
	 viewBox="0 0 158.4 158.4" style="enable-background:new 0 0 158.4 158.4;" xml:space="preserve">
<g>
	<polygon points="36.2,74.8 31.6,74.1 32.4,69.5 36.9,70.2 37.3,67.7 25.9,65.9 25.6,68.4 30.1,69.1 29.3,73.7 24.8,73 24.5,75.5 
		35.8,77.3 	"/>
	<path d="M32.4,63.7L32.4,63.7c3,1.4,6.5,0.3,8-2.9c1.5-3.2,0.2-6.7-2.7-8.1l0,0c-3-1.4-6.4-0.2-8,3C28.1,58.8,29.4,62.3,32.4,63.7z
		 M31.8,56.7c0.9-1.8,3-2.4,4.8-1.6l0,0c1.8,0.8,2.6,2.8,1.8,4.7c-0.9,1.8-3,2.4-4.8,1.6l0,0C31.7,60.5,30.9,58.5,31.8,56.7z"/>
	<polygon points="45.4,52.1 40,47.1 45.7,48 45.8,48 44.4,42.3 49.9,47.4 51.6,45.6 43.2,37.7 41.3,39.7 42.8,45.2 37.2,44.1 
		35.3,46.1 43.7,54 	"/>
	<polygon points="60.8,39.9 59.6,38 54.3,41.2 53,39.1 57.7,36.3 56.5,34.4 51.9,37.2 50.7,35.2 55.9,32 54.8,30.1 47.3,34.6 
		53.3,44.4 	"/>
	<rect x="61" y="30.6" transform="matrix(0.254 0.9672 -0.9672 0.254 80.6495 -40.7637)" width="11.5" height="2.5"/>
	<path d="M70.8,28.4c0.2,2.3,1.7,2.8,4.1,3.2c2,0.3,2.4,0.6,2.4,1.3l0,0c0.1,0.7-0.5,1.1-1.6,1.2c-1.3,0.1-2.4-0.3-3.5-1.1l-1.3,1.9
		c1.5,1.1,3.3,1.6,5,1.4c2.5-0.2,4.1-1.6,3.9-3.9l0,0c-0.2-2-1.5-2.7-3.9-3.1c-2-0.3-2.5-0.6-2.6-1.3l0,0c0-0.6,0.4-1,1.4-1.1
		c1-0.1,2,0.3,3.1,0.9l1.2-2c-1.2-0.8-2.7-1.2-4.4-1.1C72.2,24.8,70.6,26.3,70.8,28.4L70.8,28.4z"/>
	<polygon points="96.1,31.5 96,39.4 98.1,40.2 105.6,30.6 103.1,29.7 98.3,36.2 98.5,28 96.4,27.3 91.4,33.8 91.7,25.7 89.2,24.8 
		89,37 91.1,37.7 	"/>
	<polygon points="104.4,44.1 107.3,40.5 110.9,43.4 108,47 110,48.6 117.2,39.6 115.2,38 112.4,41.6 108.7,38.7 111.6,35.1 
		109.6,33.5 102.4,42.5 	"/>
	<polygon points="116.6,57.2 118.4,55.9 114.7,50.8 116.6,49.4 119.9,53.8 121.7,52.4 118.4,48.1 120.3,46.7 124,51.6 125.8,50.3 
		120.6,43.3 111.4,50.2 	"/>
	<path d="M118.4,60.9l3.4-1.4l0.7,1.8l0,0l-2.5,3.7l1.1,2.7l2.7-4.2c1.1,1.1,2.5,1.6,4.2,0.9l0,0c1-0.4,1.7-1.1,2.1-1.9
		c0.4-1,0.4-2.2-0.2-3.5l-2-4.9l-10.6,4.4L118.4,60.9z M126.9,57.4l1,2.3c0.5,1.1,0.2,2.1-0.8,2.5l0,0c-0.9,0.4-1.8,0-2.2-1.2
		l-1-2.4L126.9,57.4z"/>
	<polygon points="122.6,77.8 124.8,77.4 123.9,71.3 126.3,70.9 127.1,76.3 129.3,76 128.6,70.6 130.9,70.3 131.7,76.4 134,76.1 
		132.8,67.5 121.4,69.1 	"/>
	<polygon points="41.5,105.6 43.6,104.4 38.9,96.1 36.9,97.2 38.6,100.3 30.6,104.8 31.8,107 39.8,102.5 	"/>
	<polygon points="49,110.5 45.7,113.6 42.5,110.1 45.8,107 44.1,105.2 35.7,113 37.4,114.9 40.8,111.7 44,115.1 40.6,118.3 
		42.3,120.1 50.7,112.3 	"/>
	<polygon points="45.8,123 53.2,127.8 54.4,125.9 49.2,122.5 50.5,120.5 55,123.4 56.3,121.5 51.7,118.6 53,116.6 58.1,120 
		59.4,118.1 52.1,113.4 	"/>
	<path d="M69,121.4l-4.4-1l-2.5,11.2l4.4,1c3.5,0.8,6.5-1.1,7.2-4.3l0,0C74.5,125.2,72.6,122.2,69,121.4z M71.2,127.8L71.2,127.8
		c-0.5,2-2.1,3.1-4.1,2.6l-1.9-0.4l1.5-6.8l1.9,0.4C70.6,124.1,71.6,125.8,71.2,127.8z"/>
	<path d="M88.1,127.9c-0.2-3.3-2.9-5.8-6.4-5.6c-3.5,0.2-6,3-5.8,6.3l0,0c0.2,3.3,2.9,5.8,6.4,5.6C85.9,134,88.3,131.2,88.1,127.9
		L88.1,127.9z M82.2,131.9c-2,0.1-3.6-1.4-3.7-3.4l0,0c-0.1-2,1.2-3.7,3.2-3.8c2-0.1,3.6,1.4,3.7,3.4l0,0
		C85.6,130.1,84.3,131.8,82.2,131.9z"/>
	<polygon points="97,118.9 95.9,124.5 91.3,121 88.8,121.9 92.8,132.7 95.1,131.9 92.5,124.9 97.2,128.3 97.3,128.3 98.6,122.6 
		101.2,129.6 103.6,128.8 99.6,118 	"/>
	<polygon points="108.3,123.1 106.9,121.1 111.4,118 110.1,116.1 105.6,119.3 104.3,117.4 109.3,113.8 108,112 100.9,117 
		107.6,126.4 114.7,121.3 113.4,119.5 	"/>
	<rect x="111.7" y="108.8" transform="matrix(-0.7783 -0.6278 0.6278 -0.7783 139.838 269.4383)" width="11.5" height="2.5"/>
	<path d="M126.3,100.5L126.3,100.5c-1.8-1-3.2-0.3-4.8,1.5c-1.4,1.5-1.9,1.8-2.5,1.4l0,0c-0.5-0.3-0.6-0.9-0.2-1.8
		c0.5-0.8,1.3-1.5,2.5-2.1l-1-2.1c-1.4,0.6-2.5,1.5-3.4,3c-1.1,2-0.8,4.2,1.1,5.2l0,0c2,1.1,3.3,0.1,4.9-1.6
		c1.4-1.4,1.9-1.6,2.4-1.3l0,0c0.6,0.3,0.6,1.1,0.1,2c-0.6,1.1-1.6,1.8-2.9,2.3l0.8,2.2c1.8-0.6,3.1-1.8,4-3.4
		C128.6,103.8,128.3,101.6,126.3,100.5z"/>
	<path d="M141.6,52.8c-3.4-8.1-8.3-15.3-14.5-21.5c-6.2-6.2-13.5-11.1-21.5-14.5c-8.4-3.5-17.2-5.3-26.4-5.3s-18,1.8-26.4,5.3
		c-8.1,3.4-15.3,8.3-21.5,14.5c-6.2,6.2-11.1,13.5-14.5,21.5c-3.5,8.4-5.3,17.2-5.3,26.4s1.8,18,5.3,26.4
		c3.4,8.1,8.3,15.3,14.5,21.5c6.2,6.2,13.5,11.1,21.5,14.5c8.4,3.5,17.2,5.3,26.4,5.3s18-1.8,26.4-5.3c8.1-3.4,15.3-8.3,21.5-14.5
		c6.2-6.2,11.1-13.5,14.5-21.5c3.5-8.4,5.3-17.2,5.3-26.4S145.1,61.2,141.6,52.8z M18.9,53.7c3.3-7.8,8-14.8,14-20.8
		c6-6,13-10.7,20.8-14c8.1-3.4,16.6-5.1,25.5-5.1c8.8,0,17.4,1.7,25.5,5.1c7.8,3.3,14.8,8,20.8,14c6,6,10.7,13,14,20.8
		c3.4,8.1,5.1,16.6,5.1,25.5c0,2.6-0.2,5.2-0.5,7.8h-37c-0.2-4.6-1.5-8.9-3.6-12.7c0-0.1-0.1-0.2-0.2-0.3c-1.6-2.7-3.6-5.1-6-7.1
		c-0.1-0.1-0.2-0.2-0.3-0.2c-3.1-2.6-6.8-4.5-10.8-5.6c0,0-0.1,0-0.1,0c-1.9-0.5-3.8-0.8-5.8-0.8v-5.1l6.5-2.2
		c0.5-0.2,0.8-0.6,0.8-1.1c0-0.5-0.3-0.9-0.8-1.1l-7.2-2.5c-0.3-0.1-0.7-0.1-1,0.2c-0.3,0.2-0.5,0.5-0.5,0.9v2.5v2.5v5.9
		c-2,0.1-3.9,0.4-5.8,0.8c0,0-0.1,0-0.1,0c-4,1.1-7.7,3-10.8,5.6c-0.1,0.1-0.2,0.1-0.2,0.2c-2.4,2-4.4,4.4-6,7.1
		c-0.1,0.1-0.1,0.2-0.2,0.3c-2.2,3.8-3.5,8.1-3.6,12.7H14.2c-0.3-2.6-0.5-5.2-0.5-7.8C13.7,70.4,15.4,61.8,18.9,53.7z M80.5,51.9V51
		l2.6,0.9l-2.6,0.9V51.9z M79.4,62.4c1.7,0,3.4,0.2,5,0.5l-5,9.8l-5-9.8C75.9,62.6,77.6,62.4,79.4,62.4z M100.5,73.6h-5.7l2.1-4.2
		C98.3,70.7,99.5,72.1,100.5,73.6z M77.7,75.8l-5.1,9.8l-5.1-9.8H77.7z M68,73.6l4.6-9l4.6,9H68z M91.1,75.8l-5.1,9.8L81,75.8H91.1z
		 M81.4,73.6l4.6-9l4.6,9H81.4z M101.3,75.8l-2.2,9.1l-4.7-9.1H101.3z M92.8,72.7L88.3,64c2.5,0.9,4.9,2.3,6.9,3.9L92.8,72.7z
		 M66,72.7l-2.5-4.8c2.1-1.6,4.4-3,6.9-3.9L66,72.7z M61.7,69.4l2.1,4.2h-5.7C59.2,72.1,60.4,70.7,61.7,69.4z M64.3,75.8l-4.7,9.1
		l-2.2-9.1H64.3z M55.7,78.1l2.1,8.9h-4.1C53.8,83.9,54.5,80.9,55.7,78.1z M66,77.6l4.9,9.4h-9.7L66,77.6z M79.4,77.6l4.9,9.4h-9.7
		L79.4,77.6z M92.8,77.6l4.9,9.4h-9.7L92.8,77.6z M103,78.1c1.2,2.7,1.9,5.7,2,8.9h-4.1L103,78.1z M139.5,104.7
		c-3.3,7.8-8,14.8-14,20.8c-6,6-13,10.7-20.8,14c-8.1,3.4-16.6,5.1-25.5,5.1c-8.8,0-17.4-1.7-25.5-5.1c-7.8-3.3-14.8-8-20.8-14
		c-6-6-10.7-13-14-20.8c-2.1-5-3.6-10.1-4.4-15.5h38.1h20.1c0,0,0,0,0,0h0h0c0,0,0,0,0,0h13.4c0,0,0,0,0,0c0,0,0,0,0,0h0
		c0,0,0,0,0,0h20.1c0,0,0,0,0,0h37.8C143.1,94.5,141.6,99.7,139.5,104.7z"/>
	<path d="M145.5,51.2c-3.6-8.6-8.8-16.3-15.4-22.9c-6.6-6.6-14.3-11.8-22.9-15.4c-8.9-3.8-18.3-5.7-28-5.7c-9.7,0-19.1,1.9-28,5.7
		c-8.6,3.6-16.3,8.8-22.9,15.4c-6.6,6.6-11.8,14.3-15.4,22.9c-3.8,8.9-5.7,18.3-5.7,28c0,9.7,1.9,19.1,5.7,28
		c3.6,8.6,8.8,16.3,15.4,22.9c6.6,6.6,14.3,11.8,22.9,15.4c8.9,3.8,18.3,5.7,28,5.7c9.7,0,19.1-1.9,28-5.7
		c8.6-3.6,16.3-8.8,22.9-15.4c6.6-6.6,11.8-14.3,15.4-22.9c3.8-8.9,5.7-18.3,5.7-28C151.2,69.5,149.3,60.1,145.5,51.2z M143.5,106.4
		c-3.5,8.3-8.5,15.8-15,22.2c-6.4,6.4-13.9,11.4-22.2,15c-8.6,3.6-17.7,5.5-27.2,5.5s-18.6-1.8-27.2-5.5c-8.3-3.5-15.8-8.5-22.2-15
		c-6.4-6.4-11.4-13.9-15-22.2c-3.6-8.6-5.5-17.7-5.5-27.2s1.8-18.6,5.5-27.2c3.5-8.3,8.5-15.8,15-22.2c6.4-6.4,13.9-11.4,22.2-15
		c8.6-3.6,17.7-5.5,27.2-5.5s18.6,1.8,27.2,5.5c8.3,3.5,15.8,8.5,22.2,15c6.4,6.4,11.4,13.9,15,22.2c3.6,8.6,5.5,17.7,5.5,27.2
		S147.1,97.8,143.5,106.4z"/>
	<path d="M53.1,95.2h52.6c0.6,0,1.1-0.5,1.1-1.1c0-0.6-0.5-1.1-1.1-1.1H53.1c-0.6,0-1.1,0.5-1.1,1.1C52,94.7,52.5,95.2,53.1,95.2z"
		/>
	<path d="M102.3,99.6c0-0.6-0.5-1.1-1.1-1.1H57.5c-0.6,0-1.1,0.5-1.1,1.1c0,0.6,0.5,1.1,1.1,1.1h43.7
		C101.8,100.7,102.3,100.2,102.3,99.6z"/>
	<path d="M72.6,103.9c-0.6,0-1.1,0.5-1.1,1.1c0,0.6,0.5,1.1,1.1,1.1h13.6c0.6,0,1.1-0.5,1.1-1.1c0-0.6-0.5-1.1-1.1-1.1H72.6z"/>
</g>
</svg>
